<mxfile host="app.diagrams.net" modified="2023-11-13T19:49:20.449Z" agent="Mozilla/5.0 (Windows NT 10.0; Win64; x64) AppleWebKit/537.36 (KHTML, like Gecko) Chrome/118.0.0.0 Safari/537.36" etag="F1LVniKA-EyRAyUO_CEN" version="22.1.0" type="github">
  <diagram name="Page-1" id="c9db0220-8083-56f3-ca83-edcdcd058819">
    <mxGraphModel dx="1615" dy="834" grid="1" gridSize="10" guides="1" tooltips="1" connect="1" arrows="1" fold="1" page="1" pageScale="1.5" pageWidth="826" pageHeight="1169" background="none" math="0" shadow="0">
      <root>
        <mxCell id="0" style=";html=1;" />
        <mxCell id="1" style=";html=1;" parent="0" />
        <mxCell id="Up6wFOyI7apjWB9UmXf5-1" value="&lt;font face=&quot;Times New Roman&quot; style=&quot;font-size: 48px;&quot;&gt;&lt;b&gt;&lt;u&gt;&lt;i&gt;Glory Nights&lt;/i&gt;&lt;/u&gt;&lt;/b&gt;&lt;/font&gt;" style="rounded=0;whiteSpace=wrap;html=1;" vertex="1" parent="1">
          <mxGeometry x="350" y="200" width="670" height="130" as="geometry" />
        </mxCell>
        <mxCell id="Up6wFOyI7apjWB9UmXf5-3" value="" style="shape=table;startSize=0;container=1;collapsible=0;childLayout=tableLayout;" vertex="1" parent="1">
          <mxGeometry x="700" width="539" height="50" as="geometry" />
        </mxCell>
        <mxCell id="Up6wFOyI7apjWB9UmXf5-4" value="" style="shape=tableRow;horizontal=0;startSize=0;swimlaneHead=0;swimlaneBody=0;strokeColor=inherit;top=0;left=0;bottom=0;right=0;collapsible=0;dropTarget=0;fillColor=none;points=[[0,0.5],[1,0.5]];portConstraint=eastwest;" vertex="1" parent="Up6wFOyI7apjWB9UmXf5-3">
          <mxGeometry width="539" height="50" as="geometry" />
        </mxCell>
        <mxCell id="Up6wFOyI7apjWB9UmXf5-5" value="&lt;font style=&quot;font-size: 14px;&quot;&gt;&lt;b&gt;Home&lt;/b&gt;&lt;/font&gt;" style="shape=partialRectangle;html=1;whiteSpace=wrap;connectable=0;strokeColor=inherit;overflow=hidden;fillColor=none;top=0;left=0;bottom=0;right=0;pointerEvents=1;" vertex="1" parent="Up6wFOyI7apjWB9UmXf5-4">
          <mxGeometry width="90" height="50" as="geometry">
            <mxRectangle width="90" height="50" as="alternateBounds" />
          </mxGeometry>
        </mxCell>
        <mxCell id="Up6wFOyI7apjWB9UmXf5-6" value="&lt;font style=&quot;font-size: 14px;&quot;&gt;&lt;b&gt;People&lt;/b&gt;&lt;/font&gt;" style="shape=partialRectangle;html=1;whiteSpace=wrap;connectable=0;strokeColor=inherit;overflow=hidden;fillColor=none;top=0;left=0;bottom=0;right=0;pointerEvents=1;" vertex="1" parent="Up6wFOyI7apjWB9UmXf5-4">
          <mxGeometry x="90" width="90" height="50" as="geometry">
            <mxRectangle width="90" height="50" as="alternateBounds" />
          </mxGeometry>
        </mxCell>
        <mxCell id="Up6wFOyI7apjWB9UmXf5-7" value="&lt;font style=&quot;font-size: 14px;&quot;&gt;&lt;b&gt;Schedule&lt;/b&gt;&lt;/font&gt;" style="shape=partialRectangle;html=1;whiteSpace=wrap;connectable=0;strokeColor=inherit;overflow=hidden;fillColor=none;top=0;left=0;bottom=0;right=0;pointerEvents=1;" vertex="1" parent="Up6wFOyI7apjWB9UmXf5-4">
          <mxGeometry x="180" width="90" height="50" as="geometry">
            <mxRectangle width="90" height="50" as="alternateBounds" />
          </mxGeometry>
        </mxCell>
        <mxCell id="Up6wFOyI7apjWB9UmXf5-8" value="&lt;font style=&quot;font-size: 14px;&quot;&gt;&lt;b&gt;Connect&lt;/b&gt;&lt;/font&gt;" style="shape=partialRectangle;html=1;whiteSpace=wrap;connectable=0;strokeColor=inherit;overflow=hidden;fillColor=none;top=0;left=0;bottom=0;right=0;pointerEvents=1;" vertex="1" parent="Up6wFOyI7apjWB9UmXf5-4">
          <mxGeometry x="270" width="89" height="50" as="geometry">
            <mxRectangle width="89" height="50" as="alternateBounds" />
          </mxGeometry>
        </mxCell>
        <mxCell id="Up6wFOyI7apjWB9UmXf5-9" value="&lt;font style=&quot;font-size: 14px;&quot;&gt;&lt;b&gt;Contact&lt;/b&gt;&lt;/font&gt;" style="shape=partialRectangle;html=1;whiteSpace=wrap;connectable=0;strokeColor=inherit;overflow=hidden;fillColor=none;top=0;left=0;bottom=0;right=0;pointerEvents=1;" vertex="1" parent="Up6wFOyI7apjWB9UmXf5-4">
          <mxGeometry x="359" width="96" height="50" as="geometry">
            <mxRectangle width="96" height="50" as="alternateBounds" />
          </mxGeometry>
        </mxCell>
        <mxCell id="Up6wFOyI7apjWB9UmXf5-10" value="&lt;font style=&quot;font-size: 14px;&quot;&gt;&lt;b&gt;Donate&lt;/b&gt;&lt;/font&gt;" style="shape=partialRectangle;html=1;whiteSpace=wrap;connectable=0;strokeColor=inherit;overflow=hidden;fillColor=none;top=0;left=0;bottom=0;right=0;pointerEvents=1;" vertex="1" parent="Up6wFOyI7apjWB9UmXf5-4">
          <mxGeometry x="455" width="84" height="50" as="geometry">
            <mxRectangle width="84" height="50" as="alternateBounds" />
          </mxGeometry>
        </mxCell>
        <mxCell id="Up6wFOyI7apjWB9UmXf5-13" value="" style="shape=image;html=1;verticalAlign=top;verticalLabelPosition=bottom;labelBackgroundColor=#ffffff;imageAspect=0;aspect=fixed;image=https://cdn4.iconfinder.com/data/icons/evil-icons-user-interface/64/picture-128.png" vertex="1" parent="1">
          <mxGeometry x="345" y="250" width="680" height="680" as="geometry" />
        </mxCell>
        <mxCell id="Up6wFOyI7apjWB9UmXf5-16" value="&lt;h1&gt;&lt;span style=&quot;font-size: 48px;&quot;&gt;Our Mission:&lt;/span&gt;&lt;/h1&gt;&lt;p&gt;&lt;font style=&quot;font-size: 18px;&quot;&gt;Lorem ipsum dolor sit amet, consectetur adipisicing elit, sed do eiusmod tempor incididunt ut labore et dolore magna aliqua.&lt;/font&gt;&lt;/p&gt;" style="text;html=1;strokeColor=none;fillColor=none;spacing=5;spacingTop=-20;whiteSpace=wrap;overflow=hidden;rounded=0;" vertex="1" parent="1">
          <mxGeometry x="480" y="1210" width="390" height="160" as="geometry" />
        </mxCell>
        <mxCell id="Up6wFOyI7apjWB9UmXf5-18" value="&lt;font face=&quot;Times New Roman&quot; style=&quot;font-size: 36px;&quot;&gt;Welcome to Glory Nights&lt;/font&gt;" style="rounded=0;whiteSpace=wrap;html=1;" vertex="1" parent="1">
          <mxGeometry x="490" y="850" width="370" height="150" as="geometry" />
        </mxCell>
        <mxCell id="Up6wFOyI7apjWB9UmXf5-19" value="&lt;font style=&quot;font-size: 24px;&quot;&gt;Time: 7-10pm&lt;/font&gt;" style="rounded=0;whiteSpace=wrap;html=1;" vertex="1" parent="1">
          <mxGeometry x="490" y="1020" width="370" height="60" as="geometry" />
        </mxCell>
        <mxCell id="Up6wFOyI7apjWB9UmXf5-20" value="&lt;font style=&quot;font-size: 24px;&quot;&gt;&lt;font style=&quot;&quot;&gt;Place:&amp;nbsp;&lt;/font&gt;3300 University Ave SE Mpls, MN 55414&lt;/font&gt;" style="rounded=0;whiteSpace=wrap;html=1;" vertex="1" parent="1">
          <mxGeometry x="490" y="1110" width="370" height="60" as="geometry" />
        </mxCell>
        <mxCell id="Up6wFOyI7apjWB9UmXf5-21" value="&lt;font style=&quot;font-size: 48px;&quot;&gt;Donate&lt;/font&gt;" style="rounded=1;whiteSpace=wrap;html=1;" vertex="1" parent="1">
          <mxGeometry x="510" y="1390" width="280" height="100" as="geometry" />
        </mxCell>
        <mxCell id="Up6wFOyI7apjWB9UmXf5-23" value="" style="html=1;shadow=0;dashed=0;shape=mxgraph.bootstrap.rrect;rSize=5;strokeColor=none;strokeWidth=1;fillColor=#6C767D;fontColor=#FFFFFF;whiteSpace=wrap;align=center;verticalAlign=middle;spacingLeft=0;fontStyle=0;fontSize=16;spacing=5;" vertex="1" parent="1">
          <mxGeometry y="1520" width="1230" height="10" as="geometry" />
        </mxCell>
        <mxCell id="Up6wFOyI7apjWB9UmXf5-24" value="" style="shape=actor;double=1;whiteSpace=wrap;html=1;aspect=fixed;" vertex="1" parent="1">
          <mxGeometry x="240" y="1570" width="240" height="240" as="geometry" />
        </mxCell>
        <mxCell id="Up6wFOyI7apjWB9UmXf5-25" value="&lt;h1&gt;&lt;font face=&quot;Garamond&quot; style=&quot;font-size: 36px;&quot;&gt;About the Pastor&lt;/font&gt;&lt;/h1&gt;&lt;p&gt;&lt;font face=&quot;Garamond&quot; style=&quot;font-size: 24px;&quot;&gt;Lorem ipsum dolor sit amet, consectetur adipisicing elit, sed do eiusmod tempor incididunt ut labore et dolore magna aliqua.&lt;/font&gt;&lt;/p&gt;" style="text;html=1;strokeColor=none;fillColor=none;spacing=5;spacingTop=-20;whiteSpace=wrap;overflow=hidden;rounded=0;" vertex="1" parent="1">
          <mxGeometry x="620" y="1600" width="410" height="210" as="geometry" />
        </mxCell>
        <mxCell id="Up6wFOyI7apjWB9UmXf5-27" value="&lt;font style=&quot;font-size: 36px;&quot;&gt;Contact Us&lt;/font&gt;" style="rounded=0;whiteSpace=wrap;html=1;" vertex="1" parent="1">
          <mxGeometry x="380" y="1950" width="450" height="70" as="geometry" />
        </mxCell>
        <mxCell id="Up6wFOyI7apjWB9UmXf5-28" value="&lt;font style=&quot;font-size: 18px;&quot;&gt;Name:&amp;nbsp;&lt;/font&gt;" style="rounded=1;whiteSpace=wrap;html=1;" vertex="1" parent="1">
          <mxGeometry x="410" y="2090" width="160" height="60" as="geometry" />
        </mxCell>
        <mxCell id="Up6wFOyI7apjWB9UmXf5-29" value="&lt;font style=&quot;font-size: 18px;&quot;&gt;Email:&lt;/font&gt;" style="rounded=1;whiteSpace=wrap;html=1;" vertex="1" parent="1">
          <mxGeometry x="660" y="2090" width="160" height="60" as="geometry" />
        </mxCell>
        <mxCell id="Up6wFOyI7apjWB9UmXf5-30" value="&lt;font style=&quot;font-size: 18px;&quot;&gt;Phone:&lt;/font&gt;" style="rounded=1;whiteSpace=wrap;html=1;" vertex="1" parent="1">
          <mxGeometry x="410" y="2210" width="160" height="60" as="geometry" />
        </mxCell>
        <mxCell id="Up6wFOyI7apjWB9UmXf5-31" value="&lt;font style=&quot;font-size: 18px;&quot;&gt;Address:&lt;/font&gt;" style="rounded=1;whiteSpace=wrap;html=1;" vertex="1" parent="1">
          <mxGeometry x="660" y="2210" width="160" height="60" as="geometry" />
        </mxCell>
        <mxCell id="Up6wFOyI7apjWB9UmXf5-32" value="&lt;font style=&quot;font-size: 36px;&quot;&gt;&lt;font face=&quot;Garamond&quot;&gt;Message:&lt;/font&gt;&lt;br&gt;&lt;/font&gt;" style="rounded=1;whiteSpace=wrap;html=1;align=left;" vertex="1" parent="1">
          <mxGeometry x="410" y="2330" width="420" height="160" as="geometry" />
        </mxCell>
      </root>
    </mxGraphModel>
  </diagram>
</mxfile>
